# Blender v2.79 (sub 0) OBJ File: 'cloud.blend'
# www.blender.org
mtllib cloud.mtl
o Plane.005
v 1.282428 -0.000000 2.586581
v -0.403834 -0.000000 2.162939
v 0.742492 -0.000000 2.644728
v 0.136102 -0.000000 2.503514
v 1.805751 -0.000000 2.362300
v 2.162939 -0.000000 2.046645
v 2.412141 -0.000000 1.647923
v 2.960383 -0.000000 1.855591
v 3.425559 -0.000000 1.805751
v 3.948882 -0.000000 1.556550
v 4.264536 -0.000000 1.182748
v 4.472204 0.000000 0.676038
v 4.405751 0.000000 0.194249
v 4.214696 0.000000 -0.287540
v 3.807668 0.000000 -0.636422
v 3.359105 0.000000 -0.819169
v 3.010223 0.000000 -0.819169
v 2.785942 0.000000 -1.425559
v 2.495208 0.000000 -1.782748
v 2.071565 0.000000 -2.081789
v 1.481789 0.000000 -2.214697
v 0.958466 0.000000 -2.156550
v 0.526517 0.000000 -1.948882
v 0.244089 0.000000 -1.716294
v -0.071566 0.000000 -2.206390
v -0.561662 0.000000 -2.497125
v -1.267732 0.000000 -2.646646
v -1.890735 0.000000 -2.505431
v -2.497125 0.000000 -2.048562
v -2.721406 0.000000 -1.608307
v -2.812780 0.000000 -1.384025
v -2.821087 0.000000 -0.976997
v -3.352716 0.000000 -0.985303
v -3.917572 0.000000 -0.769329
v -4.349521 0.000000 -0.270926
v -4.474122 0.000000 0.401917
v -4.349522 0.000000 0.983387
v -3.909266 -0.000000 1.431949
v -3.361023 -0.000000 1.664537
v -3.070288 -0.000000 1.681150
v -2.679873 -0.000000 1.598083
v -2.505432 -0.000000 2.088179
v -2.098403 -0.000000 2.420448
v -1.525240 -0.000000 2.611502
v -0.925311 -0.000000 2.513437
v 1.282428 0.057000 2.586581
v -0.403834 0.057000 2.162939
v 0.742492 0.057000 2.644728
v 0.136102 0.057000 2.503514
v 1.805751 0.057000 2.362300
v 2.162939 0.056998 2.046645
v 2.412141 0.057000 1.647923
v 2.960383 0.057000 1.855591
v 3.425559 0.057000 1.805751
v 3.948882 0.057000 1.556550
v 4.264536 0.057000 1.182748
v 4.472204 0.057000 0.676038
v 4.405751 0.057000 0.194249
v 4.214696 0.057000 -0.287540
v 3.807668 0.057000 -0.636422
v 3.359105 0.057000 -0.819169
v 3.010223 0.056998 -0.819169
v 2.785942 0.057000 -1.425559
v 2.495208 0.057000 -1.782748
v 2.071565 0.057000 -2.081789
v 1.481789 0.056999 -2.214697
v 0.958466 0.057000 -2.156550
v 0.526517 0.057000 -1.948882
v 0.244089 0.057000 -1.716294
v -0.071566 0.057000 -2.206390
v -0.561662 0.057000 -2.497125
v -1.267732 0.057000 -2.646646
v -1.890735 0.057000 -2.505431
v -2.497125 0.057000 -2.048562
v -2.721406 0.057000 -1.608307
v -2.812780 0.057000 -1.384025
v -2.821087 0.057000 -0.976997
v -3.352716 0.057000 -0.985303
v -3.917572 0.057000 -0.769329
v -4.349521 0.057000 -0.270926
v -4.474122 0.057000 0.401917
v -4.349522 0.057000 0.983387
v -3.909266 0.057000 1.431949
v -3.361023 0.057000 1.664537
v -3.070288 0.057000 1.681150
v -2.679873 0.057000 1.598083
v -2.505432 0.057000 2.088179
v -2.098403 0.057000 2.420448
v -1.525240 0.057000 2.611502
v -0.925311 0.057000 2.513437
vn -0.0000 -1.0000 -0.0000
vn 0.0000 1.0000 0.0000
vn 0.3939 0.0000 0.9191
vn 0.1071 0.0000 0.9943
vn -0.5335 0.0000 0.8458
vn -0.2268 0.0000 0.9739
vn 0.6622 0.0000 0.7493
vn 0.8480 0.0000 0.5300
vn -0.3542 0.0000 0.9352
vn 0.1065 0.0000 0.9943
vn 0.4299 0.0000 0.9029
vn 0.7640 0.0000 0.6452
vn 0.9253 0.0000 0.3792
vn 0.9906 0.0000 -0.1366
vn 0.9296 0.0000 -0.3686
vn 0.6508 0.0000 -0.7593
vn 0.3773 0.0000 -0.9261
vn 0.0000 0.0000 -1.0000
vn 0.9379 0.0000 -0.3469
vn 0.7756 0.0000 -0.6313
vn 0.5767 0.0000 -0.8170
vn 0.2198 0.0000 -0.9755
vn -0.1104 0.0000 -0.9939
vn -0.4333 0.0000 -0.9013
vn -0.6357 0.0000 -0.7719
vn 0.8407 0.0000 -0.5415
vn 0.5102 0.0000 -0.8601
vn 0.2072 0.0000 -0.9783
vn -0.2211 0.0000 -0.9753
vn -0.6017 0.0000 -0.7987
vn -0.8910 0.0000 -0.4539
vn -0.9261 0.0000 -0.3773
vn -0.9998 0.0000 -0.0204
vn 0.0156 0.0000 -0.9999
vn -0.3571 0.0000 -0.9341
vn -0.7557 0.0000 -0.6549
vn -0.9833 0.0000 -0.1821
vn -0.9778 0.0000 0.2095
vn -0.7137 0.0000 0.7005
vn -0.3905 0.0000 0.9206
vn -0.0570 0.0000 0.9984
vn 0.2081 0.0000 0.9781
vn -0.9421 0.0000 0.3353
vn -0.6324 0.0000 0.7747
vn -0.3162 0.0000 0.9487
vn 0.1613 0.0000 0.9869
vn 0.5578 0.0000 0.8300
usemtl cloud
s off
f 35//1 34//1 37//1 36//1
f 33//1 38//1 37//1 34//1
f 32//1 39//1 38//1 33//1
f 39//1 32//1 41//1 40//1
f 30//1 42//1 41//1 32//1 31//1
f 29//1 43//1 42//1 30//1
f 28//1 44//1 43//1 29//1
f 27//1 45//1 44//1 28//1
f 27//1 26//1 2//1 45//1
f 25//1 24//1 2//1 26//1
f 2//1 24//1 23//1 4//1
f 4//1 23//1 22//1 3//1
f 3//1 22//1 21//1 1//1
f 1//1 21//1 20//1 5//1
f 5//1 20//1 19//1 7//1 6//1
f 18//1 17//1 7//1 19//1
f 7//1 17//1 16//1 8//1
f 8//1 16//1 15//1 9//1
f 9//1 15//1 14//1 10//1
f 11//1 10//1 14//1 13//1 12//1
f 80//2 81//2 82//2 79//2
f 78//2 79//2 82//2 83//2
f 77//2 78//2 83//2 84//2
f 84//2 85//2 86//2 77//2
f 75//2 76//2 77//2 86//2 87//2
f 74//2 75//2 87//2 88//2
f 73//2 74//2 88//2 89//2
f 72//2 73//2 89//2 90//2
f 72//2 90//2 47//2 71//2
f 70//2 71//2 47//2 69//2
f 47//2 49//2 68//2 69//2
f 49//2 48//2 67//2 68//2
f 48//2 46//2 66//2 67//2
f 46//2 50//2 65//2 66//2
f 50//2 51//2 52//2 64//2 65//2
f 63//2 64//2 52//2 62//2
f 52//2 53//2 61//2 62//2
f 53//2 54//2 60//2 61//2
f 54//2 55//2 59//2 60//2
f 56//2 57//2 58//2 59//2 55//2
f 1//3 5//3 50//3 46//3
f 3//4 1//4 46//4 48//4
f 2//5 4//5 49//5 47//5
f 4//6 3//6 48//6 49//6
f 5//7 6//7 51//7 50//7
f 6//8 7//8 52//8 51//8
f 7//9 8//9 53//9 52//9
f 8//10 9//10 54//10 53//10
f 9//11 10//11 55//11 54//11
f 10//12 11//12 56//12 55//12
f 11//13 12//13 57//13 56//13
f 12//14 13//14 58//14 57//14
f 13//15 14//15 59//15 58//15
f 14//16 15//16 60//16 59//16
f 15//17 16//17 61//17 60//17
f 16//18 17//18 62//18 61//18
f 17//19 18//19 63//19 62//19
f 18//20 19//20 64//20 63//20
f 19//21 20//21 65//21 64//21
f 20//22 21//22 66//22 65//22
f 21//23 22//23 67//23 66//23
f 22//24 23//24 68//24 67//24
f 23//25 24//25 69//25 68//25
f 24//26 25//26 70//26 69//26
f 25//27 26//27 71//27 70//27
f 26//28 27//28 72//28 71//28
f 27//29 28//29 73//29 72//29
f 28//30 29//30 74//30 73//30
f 29//31 30//31 75//31 74//31
f 30//32 31//32 76//32 75//32
f 31//33 32//33 77//33 76//33
f 32//34 33//34 78//34 77//34
f 33//35 34//35 79//35 78//35
f 34//36 35//36 80//36 79//36
f 35//37 36//37 81//37 80//37
f 36//38 37//38 82//38 81//38
f 37//39 38//39 83//39 82//39
f 38//40 39//40 84//40 83//40
f 39//41 40//41 85//41 84//41
f 40//42 41//42 86//42 85//42
f 41//43 42//43 87//43 86//43
f 42//44 43//44 88//44 87//44
f 43//45 44//45 89//45 88//45
f 44//46 45//46 90//46 89//46
f 45//47 2//47 47//47 90//47
